<svg xmlns="http://www.w3.org/2000/svg" viewBox="200 180 624 624" width="200" height="200">
<path d="M0 0 C0.812 0.644 0.812 0.644 1.64 1.301 C25.7 20.436 45.592 43.047 62 69 C62.374 69.582 62.749 70.165 63.134 70.765 C69.605 80.878 74.809 91.506 79.811 102.41 C80.62 104.172 81.439 105.93 82.268 107.684 C85.295 114.164 87.778 120.704 90 127.5 C90.342 128.54 90.685 129.581 91.038 130.652 C100.179 158.802 104.428 186.407 104.375 216 C104.375 217.085 104.375 218.171 104.374 219.289 C104.345 234.274 103.892 248.672 100.581 263.344 C99.977 266.104 99.484 268.868 99.008 271.652 C94.783 295.362 86.821 319.476 76 341 C75.653 341.699 75.305 342.398 74.947 343.118 C64.089 364.786 50.67 385.349 34 403 C32.912 404.267 31.828 405.537 30.75 406.813 C23.093 415.569 14.768 423.699 5.641 430.91 C3.936 432.259 2.257 433.64 0.609 435.059 C-21.375 453.897 -47.55 467.412 -74.344 477.952 C-76.107 478.648 -77.865 479.356 -79.618 480.076 C-84.826 482.211 -90.005 484.033 -95.438 485.5 C-96.578 485.812 -96.578 485.812 -97.741 486.13 C-139.154 497.218 -182.871 499.594 -225 491 C-225.771 490.847 -226.542 490.694 -227.336 490.537 C-274.823 480.908 -319.173 457.803 -354.773 425.043 C-356.814 423.17 -358.895 421.362 -361 419.563 C-369.543 412.085 -376.974 403.899 -384 395 C-384.885 393.906 -385.77 392.812 -386.656 391.719 C-408.576 364.506 -423.795 333.985 -435 301 C-435.522 299.506 -435.522 299.506 -436.055 297.982 C-438.356 291.306 -440.157 284.668 -441.563 277.75 C-441.772 276.731 -441.982 275.713 -442.198 274.664 C-444.242 264.388 -445.6 254.042 -446.718 243.628 C-446.897 241.959 -447.087 240.292 -447.292 238.625 C-448.181 230.973 -448.201 223.321 -448.188 215.625 C-448.187 214.916 -448.186 214.207 -448.185 213.476 C-447.997 147.768 -422.53 82.285 -378.386 33.56 C-377.031 32.035 -375.732 30.477 -374.441 28.898 C-372.08 26.095 -369.632 23.55 -367 21 C-366.45 20.466 -365.899 19.932 -365.333 19.382 C-356.304 10.669 -347.075 2.48 -337 -5 C-336.431 -5.426 -335.861 -5.852 -335.275 -6.292 C-327.099 -12.384 -318.644 -17.831 -309.822 -22.938 C-308.086 -23.95 -306.365 -24.986 -304.645 -26.023 C-294.801 -31.862 -284.532 -36.547 -274 -41 C-273.312 -41.291 -272.624 -41.583 -271.915 -41.883 C-260.773 -46.52 -249.23 -49.506 -237.527 -52.379 C-235.463 -52.886 -233.403 -53.41 -231.344 -53.938 C-151.11 -73.789 -63.78 -50.946 0 0 Z " fill="#FFFFFF" transform="translate(684,285)"/>
<path d="M0 0 C2.338 0.918 4.403 1.438 6.852 1.934 C11.863 3 16.466 4.724 21.199 6.66 C22.496 7.186 22.496 7.186 23.82 7.722 C48.253 17.785 70.384 31.915 89.637 50.035 C90.197 50.561 90.757 51.087 91.333 51.629 C105.87 65.395 117.584 80.745 127.637 98.035 C127.991 98.64 128.345 99.245 128.709 99.868 C148.923 134.831 153.503 171.34 152.637 211.035 C148.821 209.256 146.566 207.097 143.637 204.035 C139.11 199.401 134.492 194.984 129.582 190.758 C125.589 187.222 121.921 183.352 118.199 179.535 C116.108 177.495 113.985 175.613 111.762 173.723 C109.019 171.353 106.597 168.93 104.262 166.16 C100.125 161.309 95.434 157.219 90.637 153.035 C89.533 152.046 88.43 151.057 87.328 150.066 C46.458 113.625 -3.128 88.58 -57.363 80.035 C-58.998 79.758 -58.998 79.758 -60.667 79.475 C-68.96 78.153 -77.108 77.693 -85.487 77.719 C-87.56 77.723 -89.632 77.699 -91.705 77.674 C-102.721 77.621 -113.625 78.678 -122.363 86.035 C-126.498 91.336 -127.905 95.318 -127.363 102.035 C-120.942 121.165 -102.447 131.401 -85.363 140.035 C-52.993 155.621 -17.098 164.748 18.098 171.297 C23.317 172.386 28.47 173.719 33.637 175.035 C34.771 175.32 35.906 175.605 37.075 175.899 C70.617 184.367 104.607 195.04 129.637 220.035 C130.485 220.872 131.333 221.708 132.207 222.57 C140.122 230.811 145.093 240.303 144.898 251.855 C142.91 276.017 127.417 303.297 112.637 322.035 C111.668 323.29 111.668 323.29 110.68 324.57 C75.954 368.884 26.66 397.724 -29.293 405.238 C-50.832 407.674 -74.169 407.839 -95.363 403.035 C-96.183 402.858 -97.004 402.681 -97.849 402.499 C-108.711 400.123 -119.168 397.043 -129.454 392.818 C-130.715 392.301 -131.98 391.793 -133.249 391.295 C-155.75 382.466 -176.398 368.774 -193.984 352.262 C-196.081 350.299 -198.227 348.443 -200.426 346.598 C-234.598 316.645 -258.022 267.762 -261.18 222.7 C-261.494 216.42 -261.549 210.145 -261.549 203.858 C-261.551 201.576 -261.569 199.295 -261.588 197.014 C-261.591 195.543 -261.593 194.072 -261.594 192.602 C-261.598 191.291 -261.602 189.981 -261.606 188.631 C-261.367 185.09 -260.648 182.328 -259.363 179.035 C-255.991 179.597 -254.672 180.46 -252.613 183.16 C-248.589 188.098 -243.885 192.041 -238.898 195.984 C-228.815 203.995 -219.61 213.034 -211.262 222.844 C-204.666 230.457 -197.909 238.04 -190.152 244.488 C-188.275 246.111 -186.623 247.851 -184.926 249.66 C-146.62 288.416 -83.332 317.81 -28.898 318.27 C-27.025 318.277 -27.025 318.277 -25.113 318.285 C-23.88 318.306 -22.646 318.326 -21.375 318.348 C-10.531 318.393 0.143 317.561 9.148 311.023 C10.637 310.035 10.637 310.035 12.637 310.035 C12.925 309.313 13.214 308.591 13.512 307.848 C14.637 305.035 14.637 305.035 15.762 302.785 C17.857 296.199 17.006 290.357 13.957 284.227 C-2.926 256.204 -49.831 243.063 -79.008 234.973 C-81.074 234.395 -83.129 233.775 -85.161 233.085 C-88.404 232.022 -91.649 231.141 -94.957 230.301 C-96.225 229.977 -97.493 229.653 -98.799 229.319 C-99.463 229.15 -100.126 228.982 -100.81 228.808 C-104.288 227.923 -107.763 227.028 -111.238 226.133 C-111.931 225.954 -112.624 225.776 -113.338 225.592 C-119.521 223.998 -125.697 222.381 -131.863 220.723 C-132.733 220.493 -133.602 220.263 -134.498 220.026 C-138.092 219.052 -141.422 218.01 -144.852 216.535 C-149.164 214.693 -153.527 213.551 -158.051 212.348 C-189.446 203.656 -228.084 188.027 -245.785 159.004 C-250.396 150.331 -252.88 141.87 -250.367 132.203 C-249.903 130.87 -249.422 129.544 -248.926 128.223 C-248.66 127.498 -248.394 126.773 -248.12 126.026 C-237.586 98.083 -221.201 74.273 -200.363 53.035 C-199.473 52.125 -199.473 52.125 -198.565 51.197 C-152.202 4.258 -64.202 -26.212 0 0 Z " fill="#17181A" transform="translate(566.363,294.965)"/>
<path d="M0 0 C0.812 0.644 0.812 0.644 1.64 1.301 C25.7 20.436 45.592 43.047 62 69 C62.374 69.582 62.749 70.165 63.134 70.765 C69.605 80.878 74.809 91.506 79.811 102.41 C80.62 104.172 81.439 105.93 82.268 107.684 C85.295 114.164 87.778 120.704 90 127.5 C90.342 128.54 90.685 129.581 91.038 130.652 C100.179 158.802 104.428 186.407 104.375 216 C104.375 217.085 104.375 218.171 104.374 219.289 C104.345 234.274 103.892 248.672 100.581 263.344 C99.977 266.104 99.484 268.868 99.008 271.652 C94.783 295.362 86.821 319.476 76 341 C75.653 341.699 75.305 342.398 74.947 343.118 C64.089 364.786 50.67 385.349 34 403 C32.912 404.267 31.828 405.537 30.75 406.813 C23.093 415.569 14.768 423.699 5.641 430.91 C3.936 432.259 2.257 433.64 0.609 435.059 C-21.375 453.897 -47.55 467.412 -74.344 477.952 C-76.107 478.648 -77.865 479.356 -79.618 480.076 C-84.826 482.211 -90.005 484.033 -95.438 485.5 C-96.578 485.812 -96.578 485.812 -97.741 486.13 C-139.154 497.218 -182.871 499.594 -225 491 C-225.771 490.847 -226.542 490.694 -227.336 490.537 C-274.823 480.908 -319.173 457.803 -354.773 425.043 C-356.814 423.17 -358.895 421.362 -361 419.563 C-369.543 412.085 -376.974 403.899 -384 395 C-384.885 393.906 -385.77 392.812 -386.656 391.719 C-408.576 364.506 -423.795 333.985 -435 301 C-435.522 299.506 -435.522 299.506 -436.055 297.982 C-438.356 291.306 -440.157 284.668 -441.563 277.75 C-441.772 276.731 -441.982 275.713 -442.198 274.664 C-444.242 264.388 -445.6 254.042 -446.718 243.628 C-446.897 241.959 -447.087 240.292 -447.292 238.625 C-448.181 230.973 -448.201 223.321 -448.188 215.625 C-448.187 214.916 -448.186 214.207 -448.185 213.476 C-447.997 147.768 -422.53 82.285 -378.386 33.56 C-377.031 32.035 -375.732 30.477 -374.441 28.898 C-372.08 26.095 -369.632 23.55 -367 21 C-366.45 20.466 -365.899 19.932 -365.333 19.382 C-356.304 10.669 -347.075 2.48 -337 -5 C-336.431 -5.426 -335.861 -5.852 -335.275 -6.292 C-327.099 -12.384 -318.644 -17.831 -309.822 -22.938 C-308.086 -23.95 -306.365 -24.986 -304.645 -26.023 C-294.801 -31.862 -284.532 -36.547 -274 -41 C-273.312 -41.291 -272.624 -41.583 -271.915 -41.883 C-260.773 -46.52 -249.23 -49.506 -237.527 -52.379 C-235.463 -52.886 -233.403 -53.41 -231.344 -53.938 C-151.11 -73.789 -63.78 -50.946 0 0 Z M-320 26 C-320.796 26.626 -321.593 27.252 -322.413 27.896 C-329.434 33.513 -335.86 39.556 -342.188 45.938 C-343.12 46.862 -344.053 47.787 -345.014 48.74 C-350.784 54.527 -356.042 60.506 -361 67 C-361.48 67.616 -361.961 68.232 -362.456 68.866 C-390.522 105.051 -410.722 152.58 -411.238 198.891 C-411.248 199.625 -411.258 200.359 -411.268 201.115 C-411.888 260.146 -394.779 319.068 -355 364 C-354 365.162 -354 365.162 -352.98 366.348 C-342.527 378.275 -331.373 389.299 -318.644 398.771 C-317.053 399.96 -315.483 401.177 -313.914 402.395 C-266.575 438.862 -203.793 455.235 -144.599 447.771 C-138.715 446.948 -132.854 446.021 -127 445 C-126.111 444.845 -125.221 444.69 -124.305 444.531 C-87.206 437.789 -51.304 419.307 -22 396 C-21.152 395.328 -21.152 395.328 -20.287 394.642 C-7.23 384.191 4.886 372.334 15 359 C15.641 358.158 15.641 358.158 16.295 357.298 C31.867 336.74 44.018 315.226 53 291 C53.4 289.956 53.8 288.912 54.212 287.836 C57.477 279.084 59.772 270.304 61.688 261.188 C61.838 260.481 61.988 259.775 62.142 259.047 C74.487 200.717 64.31 138.951 32.203 88.336 C28.302 82.428 24.245 76.665 20 71 C19.575 70.429 19.15 69.859 18.712 69.271 C-0.562 43.558 -24.695 21.409 -53 6 C-54.322 5.279 -54.322 5.279 -55.67 4.542 C-66.542 -1.348 -77.284 -6.986 -89 -11 C-90.178 -11.463 -91.356 -11.926 -92.57 -12.402 C-168.995 -41.151 -256.721 -24.07 -320 26 Z " fill="#FFFFFF" transform="translate(684,285)"/>
<path d="M0 0 C0.812 0.644 0.812 0.644 1.64 1.301 C25.7 20.436 45.592 43.047 62 69 C62.374 69.582 62.749 70.165 63.134 70.765 C69.605 80.878 74.809 91.506 79.811 102.41 C80.62 104.172 81.439 105.93 82.268 107.684 C85.295 114.164 87.778 120.704 90 127.5 C90.342 128.54 90.685 129.581 91.038 130.652 C100.179 158.802 104.428 186.407 104.375 216 C104.375 217.085 104.375 218.171 104.374 219.289 C104.345 234.274 103.892 248.672 100.581 263.344 C99.977 266.104 99.484 268.868 99.008 271.652 C94.783 295.362 86.821 319.476 76 341 C75.653 341.699 75.305 342.398 74.947 343.118 C64.089 364.786 50.67 385.349 34 403 C32.912 404.267 31.828 405.537 30.75 406.813 C23.093 415.569 14.768 423.699 5.641 430.91 C3.936 432.259 2.257 433.64 0.609 435.059 C-21.375 453.897 -47.55 467.412 -74.344 477.952 C-76.107 478.648 -77.865 479.356 -79.618 480.076 C-84.826 482.211 -90.005 484.033 -95.438 485.5 C-96.578 485.812 -96.578 485.812 -97.741 486.13 C-139.154 497.218 -182.871 499.594 -225 491 C-225.771 490.847 -226.542 490.694 -227.336 490.537 C-274.823 480.908 -319.173 457.803 -354.773 425.043 C-356.814 423.17 -358.895 421.362 -361 419.563 C-369.543 412.085 -376.974 403.899 -384 395 C-384.885 393.906 -385.77 392.812 -386.656 391.719 C-408.576 364.506 -423.795 333.985 -435 301 C-435.522 299.506 -435.522 299.506 -436.055 297.982 C-438.356 291.306 -440.157 284.668 -441.563 277.75 C-441.772 276.731 -441.982 275.713 -442.198 274.664 C-444.242 264.388 -445.6 254.042 -446.718 243.628 C-446.897 241.959 -447.087 240.292 -447.292 238.625 C-448.181 230.973 -448.201 223.321 -448.188 215.625 C-448.187 214.916 -448.186 214.207 -448.185 213.476 C-447.997 147.768 -422.53 82.285 -378.386 33.56 C-377.031 32.035 -375.732 30.477 -374.441 28.898 C-372.08 26.095 -369.632 23.55 -367 21 C-366.45 20.466 -365.899 19.932 -365.333 19.382 C-356.304 10.669 -347.075 2.48 -337 -5 C-336.431 -5.426 -335.861 -5.852 -335.275 -6.292 C-327.099 -12.384 -318.644 -17.831 -309.822 -22.938 C-308.086 -23.95 -306.365 -24.986 -304.645 -26.023 C-294.801 -31.862 -284.532 -36.547 -274 -41 C-273.312 -41.291 -272.624 -41.583 -271.915 -41.883 C-260.773 -46.52 -249.23 -49.506 -237.527 -52.379 C-235.463 -52.886 -233.403 -53.41 -231.344 -53.938 C-151.11 -73.789 -63.78 -50.946 0 0 Z M-315 -4 C-315.611 -3.592 -316.221 -3.184 -316.85 -2.764 C-329.891 6.054 -342.055 16.085 -353.563 26.813 C-354.205 27.41 -354.847 28.008 -355.509 28.624 C-359.968 32.847 -364.014 37.333 -368 42 C-368.888 43.01 -369.777 44.019 -370.668 45.027 C-416.018 97.409 -436.653 164.495 -432.638 233.208 C-431.841 244.044 -429.866 254.575 -427.625 265.188 C-427.405 266.237 -427.405 266.237 -427.18 267.307 C-425.32 276.069 -423.049 284.565 -420 293 C-419.691 293.871 -419.382 294.742 -419.063 295.639 C-415.036 306.832 -410.562 317.63 -404.982 328.137 C-404.012 329.976 -403.074 331.829 -402.141 333.688 C-391.753 354.118 -377.862 372.52 -362 389 C-361.319 389.713 -360.638 390.427 -359.937 391.162 C-349.335 402.218 -338.492 412.135 -326 421 C-324.894 421.802 -323.789 422.604 -322.684 423.406 C-319.497 425.671 -316.271 427.861 -313 430 C-312.361 430.42 -311.722 430.839 -311.063 431.271 C-263.942 461.888 -212.246 471.685 -157 471 C-156.145 470.993 -155.29 470.985 -154.409 470.978 C-91.293 470.152 -30.651 436.278 14 394 C14.752 393.291 15.503 392.582 16.277 391.852 C21.669 386.62 26.327 380.872 31 375 C31.864 373.95 32.728 372.9 33.594 371.852 C51.924 349.418 65.54 323.3 75 296 C75.484 294.653 75.968 293.307 76.453 291.961 C79.436 283.427 81.626 274.816 83.555 265.998 C83.961 264.177 84.4 262.363 84.844 260.551 C91.156 233.881 90.867 204.043 87 177 C86.856 175.795 86.711 174.589 86.563 173.348 C84.453 156.606 80.108 139.718 74 124 C73.742 123.336 73.485 122.671 73.219 121.987 C65.145 101.482 55.244 81.662 42 64 C41.587 63.44 41.174 62.879 40.748 62.302 C37.915 58.466 34.994 54.711 32 51 C31.358 50.201 31.358 50.201 30.703 49.387 C17.877 33.58 3.43 19.037 -13 7 C-14.313 5.979 -15.625 4.958 -16.938 3.938 C-46.215 -17.606 -79.732 -33.357 -115.378 -40.685 C-117.803 -41.185 -120.222 -41.704 -122.643 -42.225 C-138.622 -45.602 -154.407 -47.398 -170.75 -47.375 C-171.448 -47.374 -172.146 -47.373 -172.865 -47.372 C-223.209 -47.167 -273.144 -31.985 -315 -4 Z " fill="#181B1A" transform="translate(684,285)"/>
<path d="M0 0 C0.794 -0.003 1.587 -0.005 2.405 -0.008 C15.623 -0.013 28.248 1.106 41.222 3.766 C43.831 4.291 46.442 4.749 49.066 5.188 C95.372 13.186 137.308 38.235 170.938 70.313 C171.52 70.866 172.102 71.419 172.702 71.99 C181.281 80.199 188.856 88.788 195.938 98.313 C196.632 99.224 197.327 100.135 198.043 101.074 C229.018 142.437 245.147 191.598 245.188 243.125 C245.188 243.894 245.189 244.664 245.19 245.456 C245.171 258.608 244.347 271.358 241.938 284.313 C241.766 285.254 241.594 286.196 241.417 287.167 C234.895 322.014 220.997 355.726 199.938 384.313 C199.504 384.903 199.071 385.493 198.624 386.102 C193.742 392.705 188.593 398.994 183.027 405.039 C181.079 407.159 179.19 409.317 177.313 411.5 C163.824 426.942 147.212 439.41 129.938 450.313 C129.29 450.724 128.642 451.135 127.975 451.558 C112.702 461.154 96.257 469.178 78.938 474.313 C77.499 474.808 76.061 475.308 74.625 475.813 C68.148 477.956 61.558 479.678 54.938 481.313 C54.223 481.49 53.509 481.667 52.772 481.849 C22.43 489.204 -11.367 490.144 -42.063 484.313 C-42.976 484.146 -43.889 483.98 -44.83 483.809 C-83.321 476.666 -119.185 460.35 -150.063 436.313 C-150.924 435.663 -151.785 435.013 -152.672 434.344 C-203.074 395.472 -234.819 336.702 -243.703 274.13 C-246.723 250.478 -246.817 224.713 -242.063 201.313 C-241.772 199.86 -241.772 199.86 -241.477 198.378 C-229.931 142.307 -198.442 87.852 -152.063 53.313 C-151.413 52.825 -150.764 52.337 -150.096 51.834 C-140.103 44.353 -129.951 37.419 -119.063 31.313 C-118.377 30.92 -117.692 30.527 -116.985 30.123 C-89.369 14.403 -58.57 5.08 -27.063 1.313 C-26.356 1.22 -25.649 1.128 -24.921 1.033 C-16.642 0.062 -8.326 0.026 0 0 Z M-148.063 58.313 C-148.859 58.938 -149.655 59.564 -150.476 60.209 C-157.497 65.826 -163.922 71.869 -170.25 78.25 C-171.183 79.175 -172.115 80.1 -173.076 81.053 C-178.847 86.839 -184.105 92.819 -189.063 99.313 C-189.543 99.928 -190.023 100.544 -190.518 101.178 C-218.584 137.364 -238.784 184.892 -239.301 231.203 C-239.311 231.937 -239.32 232.671 -239.33 233.428 C-239.951 292.459 -222.842 351.381 -183.063 396.313 C-182.063 397.475 -182.063 397.475 -181.043 398.66 C-170.59 410.588 -159.435 421.612 -146.706 431.083 C-145.116 432.273 -143.546 433.49 -141.977 434.707 C-94.638 471.174 -31.856 487.547 27.338 480.083 C33.223 479.26 39.084 478.334 44.938 477.313 C45.827 477.158 46.716 477.003 47.632 476.843 C84.732 470.101 120.634 451.62 149.938 428.313 C150.785 427.64 150.785 427.64 151.65 426.955 C164.708 416.503 176.823 404.647 186.938 391.313 C187.578 390.47 187.578 390.47 188.232 389.611 C203.805 369.052 215.956 347.538 224.938 323.313 C225.337 322.268 225.737 321.224 226.149 320.148 C229.414 311.397 231.71 302.617 233.625 293.5 C233.775 292.794 233.925 292.087 234.08 291.36 C246.425 233.029 236.248 171.263 204.141 120.648 C200.239 114.741 196.183 108.978 191.938 103.313 C191.512 102.742 191.087 102.171 190.649 101.583 C171.376 75.87 147.242 53.722 118.938 38.313 C117.616 37.591 117.616 37.591 116.267 36.855 C105.396 30.965 94.654 25.326 82.938 21.313 C81.759 20.85 80.581 20.387 79.367 19.91 C2.942 -8.838 -84.784 8.243 -148.063 58.313 Z " fill="#1D1E1E" transform="translate(512.063,252.688)"/>
<path d="M0 0 C0.33 0.99 0.66 1.98 1 3 C-5.27 9.27 -11.54 15.54 -18 22 C-18.66 21.67 -19.32 21.34 -20 21 C-17.794 18.623 -15.584 16.249 -13.375 13.875 C-12.758 13.21 -12.14 12.545 -11.504 11.859 C-7.745 7.824 -3.924 3.875 0 0 Z " fill="#232426" transform="translate(372,342)"/>
</svg>
